<svg width="248" height="93" viewBox="0 0 248 93" fill="none" xmlns="http://www.w3.org/2000/svg">
<path d="M128.389 61.021C133.245 62.3771 139.311 65.6757 143.013 73.5557V29.2078H111.053C114.095 31.3702 117.907 34.6321 121.205 39.1402C125.915 45.6275 128.334 52.9944 128.389 61.021Z" fill="#1096D4"/>
<path d="M23.5666 83.5258C21.954 81.2351 19.4617 79.256 16.3647 77.7533C15.3934 77.2768 14.3672 77.0569 13.3226 77.0569C11.8016 77.0569 10.2806 77.5517 8.94282 78.5229C6.32227 80.3921 4.70962 83.764 5.0578 86.6778C5.35101 89.1151 6.90869 91.021 9.41929 92.0289C10.5921 92.487 11.7833 92.7436 12.9561 92.7436C17.5009 92.7436 20.6162 89.1518 22.0456 87.0993C22.1739 87.4475 22.2105 87.6674 22.2289 87.7224C22.2472 88.5653 22.9252 89.2434 23.7682 89.2434C24.6112 89.2434 25.3259 88.547 25.3259 87.704C25.2892 87.081 24.9227 85.4683 23.5666 83.5258ZM10.4822 89.5733C8.88785 88.9319 7.97157 87.814 7.78831 86.3479C7.55008 84.4054 8.70459 82.0598 10.5371 80.7587C11.1236 80.3372 12.1315 79.7874 13.3593 79.7874C13.9457 79.7874 14.5688 79.9157 15.2468 80.2455C17.7941 81.4734 19.4984 82.9211 20.5979 84.2039C19.6633 85.9814 16.1081 91.8273 10.4822 89.5733Z" fill="black"/>
<path d="M10.4822 89.573C8.88788 88.9316 7.97161 87.8137 7.78835 86.3477C7.55012 84.4052 8.70463 82.0595 10.5372 80.7584C11.1236 80.3369 12.1315 79.7871 13.3593 79.7871C13.9457 79.7871 14.5688 79.9154 15.2469 80.2452C17.7941 81.4731 19.4984 82.9208 20.5979 84.2036C19.6633 85.9812 16.1082 91.827 10.4822 89.573Z" fill="#EB2127"/>
<path d="M200.28 83.5258C198.686 81.2351 196.194 79.256 193.097 77.7533C192.125 77.2768 191.099 77.0569 190.055 77.0569C188.534 77.0569 187.013 77.5517 185.675 78.5229C183.054 80.3921 181.442 83.764 181.79 86.6778C182.083 89.1151 183.622 91.021 186.133 92.0289C187.306 92.487 188.497 92.7436 189.67 92.7436C194.214 92.7436 197.33 89.1518 198.759 87.0993C198.888 87.4475 198.924 87.6674 198.924 87.7224C198.942 88.5653 199.621 89.2434 200.482 89.2434C201.325 89.2434 202.04 88.547 202.04 87.704C202.021 87.081 201.655 85.4683 200.28 83.5258ZM187.214 89.5733C185.62 88.9319 184.704 87.814 184.52 86.3479C184.282 84.4054 185.437 82.0598 187.251 80.7587C187.837 80.3372 188.845 79.7874 190.073 79.7874C190.659 79.7874 191.301 79.9157 191.96 80.2455C194.526 81.4734 196.23 82.9211 197.311 84.2039C196.395 85.9814 192.84 91.8273 187.214 89.5733Z" fill="black"/>
<path d="M187.214 89.573C185.62 88.9316 184.703 87.8137 184.52 86.3477C184.282 84.4052 185.436 82.0595 187.251 80.7584C187.837 80.3369 188.845 79.7871 190.073 79.7871C190.659 79.7871 191.301 79.9154 191.96 80.2452C194.526 81.4731 196.23 82.9208 197.311 84.2036C196.395 85.9812 192.84 91.827 187.214 89.573Z" fill="#89C441"/>
<path d="M75.2998 32.6538L55.8014 51.5658C64.8909 47.1127 72.441 45.0602 75.2998 44.3822V32.6538Z" fill="#89C441"/>
<path d="M35.295 32.6538L15.7966 51.5658C24.8861 47.1127 32.4363 45.0602 35.295 44.3822V32.6538Z" fill="white"/>
<path d="M121.04 73.0068C119.574 73.8132 117.43 73.7948 115.799 71.9623C115.103 71.156 114.077 67.949 115.653 65.5483C116.697 63.9723 118.768 63.1294 121.865 63.0744C122.067 63.0561 123.386 63.0011 125.292 63.3309C125.237 63.8807 124.651 71.0094 121.04 73.0068Z" fill="white"/>
<path d="M75.2997 47.6804C70.9199 48.7983 60.2911 52.0053 48.7277 59.1522L75.2997 82.7556V47.6804Z" fill="white"/>
<path d="M245.746 89.2065C246.589 89.2065 247.139 89.3531 247.414 89.628C247.688 89.9029 247.835 90.416 247.835 91.1307C247.835 91.8271 247.688 92.3219 247.414 92.5968C247.139 92.8533 246.607 92.9999 245.783 92.9999C244.94 92.9999 244.39 92.8533 244.115 92.5784C243.84 92.3036 243.693 91.7904 243.693 91.0574C243.693 90.3611 243.822 89.8663 244.115 89.5914C244.372 89.3348 244.921 89.2065 245.746 89.2065Z" fill="#4D4D4D"/>
<path d="M247.34 58.6026C246.901 57.5764 246.277 56.7334 245.489 56.0554C244.701 55.3773 243.767 54.8642 242.667 54.5344C241.586 54.1862 240.377 54.0212 239.076 54.0212C237.756 54.0212 236.547 54.1862 235.502 54.4977C234.439 54.8276 233.523 55.304 232.79 55.9638C232.057 56.6051 231.489 57.4115 231.086 58.4011C230.701 59.3723 230.499 60.5268 230.499 61.8279C230.499 63.1657 230.719 64.3569 231.159 65.3648C231.599 66.391 232.222 67.234 233.01 67.912C233.798 68.5718 234.751 69.0849 235.832 69.4147C236.931 69.7446 238.123 69.9278 239.424 69.9278C240.761 69.9278 241.953 69.7629 243.016 69.4514C244.078 69.1398 244.976 68.6451 245.709 68.0037C246.461 67.3623 247.029 66.5376 247.414 65.5664C247.798 64.5951 248 63.4589 248 62.1395C248 60.8017 247.78 59.6105 247.34 58.6026ZM245.031 64.3385C244.701 64.9799 244.243 65.4747 243.675 65.8412C243.107 66.2078 242.447 66.4826 241.659 66.6476C240.89 66.8125 240.065 66.8675 239.204 66.8675C238.288 66.8675 237.463 66.7758 236.693 66.5743C235.924 66.3727 235.245 66.0795 234.696 65.6763C234.146 65.2731 233.706 64.76 233.395 64.137C233.083 63.5139 232.936 62.7625 232.936 61.9012C232.936 60.9666 233.101 60.1786 233.45 59.5556C233.779 58.9142 234.256 58.4194 234.824 58.0529C235.392 57.6864 236.07 57.4115 236.84 57.2649C237.609 57.0999 238.434 57.0266 239.277 57.0266C240.193 57.0266 241.036 57.1183 241.806 57.3198C242.576 57.5214 243.235 57.8146 243.785 58.1995C244.353 58.621 244.775 59.1158 245.086 59.7571C245.398 60.3985 245.544 61.1316 245.544 61.9745C245.526 62.9275 245.38 63.7155 245.031 64.3385Z" fill="#4D4D4D"/>
<path d="M247.212 26.0933C247.322 26.0933 247.395 26.1116 247.45 26.1666C247.524 26.2215 247.578 26.2948 247.615 26.4048C247.652 26.5148 247.707 26.6614 247.725 26.8446C247.762 27.0462 247.762 27.2661 247.762 27.541C247.762 27.8525 247.743 28.0724 247.725 28.274C247.707 28.4756 247.652 28.6222 247.615 28.7138C247.56 28.8421 247.505 28.9154 247.45 28.9521C247.377 29.007 247.304 29.0254 247.212 29.0254H237.554C236.876 29.0254 236.272 29.0987 235.703 29.1903C235.154 29.3186 234.677 29.5018 234.274 29.7584C233.871 30.0149 233.559 30.3631 233.358 30.748C233.138 31.1511 233.028 31.6276 233.028 32.159C233.028 32.8371 233.303 33.5151 233.816 34.1932C234.329 34.8712 235.099 35.6226 236.088 36.4289H247.212C247.322 36.4289 247.395 36.4472 247.45 36.5022C247.524 36.5572 247.578 36.6305 247.615 36.7404C247.652 36.8504 247.707 36.997 247.725 37.1986C247.762 37.3818 247.762 37.6201 247.762 37.9133C247.762 38.1698 247.743 38.408 247.725 38.6096C247.707 38.8112 247.652 38.9578 247.615 39.0678C247.56 39.1777 247.505 39.251 247.45 39.2877C247.377 39.3427 247.304 39.3427 247.212 39.3427H237.554C236.876 39.3427 236.272 39.416 235.703 39.5442C235.154 39.6725 234.677 39.8558 234.274 40.1307C233.871 40.3872 233.559 40.6987 233.358 41.1019C233.138 41.5051 233.028 41.9632 233.028 42.513C233.028 43.191 233.303 43.8691 233.816 44.5471C234.329 45.2435 235.099 45.9765 236.088 46.7828H247.212C247.322 46.7828 247.395 46.8012 247.45 46.8561C247.524 46.9111 247.578 46.9844 247.615 47.0944C247.652 47.2043 247.707 47.3509 247.725 47.5342C247.762 47.7358 247.762 47.974 247.762 48.2672C247.762 48.5421 247.743 48.7803 247.725 48.9636C247.707 49.1468 247.652 49.3118 247.615 49.4217C247.56 49.5317 247.505 49.605 247.45 49.6416C247.377 49.6783 247.304 49.7149 247.212 49.7149H231.305C231.214 49.7149 231.14 49.6966 231.067 49.66C230.994 49.6233 230.939 49.5683 230.884 49.4584C230.829 49.3484 230.792 49.2018 230.774 49.0552C230.774 48.8903 230.756 48.6704 230.756 48.3955C230.756 48.1389 230.774 47.919 230.774 47.7541C230.792 47.5892 230.829 47.4609 230.884 47.3693C230.939 47.2776 230.994 47.2043 231.067 47.1677C231.14 47.131 231.214 47.1127 231.305 47.1127H233.413C232.423 46.2147 231.672 45.3534 231.214 44.4921C230.737 43.6492 230.499 42.7879 230.499 41.9449C230.499 41.2852 230.572 40.6804 230.737 40.1673C230.884 39.6359 231.104 39.1777 231.379 38.7746C231.654 38.3714 231.983 38.0415 232.368 37.7483C232.735 37.4734 233.175 37.2352 233.633 37.052C233.065 36.5205 232.57 36.0074 232.167 35.5309C231.764 35.0545 231.434 34.5963 231.195 34.1565C230.957 33.7167 230.774 33.2769 230.646 32.8554C230.536 32.4339 230.481 32.0124 230.481 31.5909C230.481 30.5647 230.664 29.7034 231.03 29.007C231.379 28.329 231.855 27.7609 232.46 27.3211C233.065 26.8813 233.761 26.5881 234.567 26.4048C235.374 26.2215 236.235 26.1116 237.133 26.1116H247.212V26.0933Z" fill="#4D4D4D"/>
<path d="M244.793 72.3831C244.995 72.3831 245.16 72.3831 245.306 72.4014C245.453 72.4197 245.581 72.438 245.691 72.4564C245.783 72.493 245.856 72.5297 245.948 72.5663C246.039 72.603 246.149 72.6946 246.277 72.8412C246.442 72.9878 246.607 73.2444 246.827 73.5925C247.029 73.9407 247.23 74.3439 247.414 74.7837C247.579 75.2235 247.725 75.7183 247.817 76.2314C247.927 76.7445 247.982 77.276 247.982 77.8258C247.982 78.9803 247.78 79.9882 247.414 80.8678C247.029 81.7658 246.497 82.4988 245.764 83.1035C245.031 83.6899 244.152 84.1481 243.107 84.4596C242.044 84.7528 240.835 84.9178 239.46 84.9178C237.884 84.9178 236.547 84.7345 235.429 84.3497C234.311 83.9648 233.376 83.4334 232.662 82.7737C231.929 82.1139 231.397 81.3259 231.067 80.428C230.719 79.53 230.536 78.5588 230.536 77.4959C230.536 76.9828 230.591 76.488 230.682 76.0298C230.792 75.5534 230.902 75.1136 231.067 74.7104C231.214 74.3072 231.397 73.9591 231.58 73.6475C231.782 73.336 231.965 73.1161 232.093 72.9695C232.24 72.8412 232.35 72.7312 232.423 72.6763C232.515 72.6213 232.607 72.5663 232.717 72.5297C232.826 72.493 232.955 72.4747 233.101 72.4747C233.248 72.4564 233.413 72.4564 233.633 72.4564C234.091 72.4564 234.402 72.5113 234.604 72.6213C234.787 72.7312 234.861 72.8412 234.861 73.0061C234.861 73.1894 234.769 73.4093 234.586 73.6109C234.384 73.8491 234.164 74.1423 233.926 74.4905C233.688 74.8387 233.486 75.2602 233.285 75.755C233.101 76.2681 232.991 76.8545 232.991 77.5325C232.991 78.9253 233.523 80.0065 234.604 80.7395C235.685 81.4909 237.243 81.8757 239.295 81.8757C240.322 81.8757 241.22 81.7841 241.989 81.5825C242.777 81.3809 243.4 81.106 243.932 80.7212C244.463 80.3547 244.848 79.8782 245.086 79.3468C245.343 78.797 245.471 78.1739 245.471 77.4592C245.471 76.7812 245.361 76.1948 245.141 75.6817C244.94 75.1685 244.701 74.7471 244.445 74.3622C244.188 73.9957 243.968 73.6842 243.748 73.4276C243.547 73.1711 243.437 72.9695 243.437 72.8412C243.437 72.7496 243.455 72.6946 243.51 72.6396C243.547 72.5663 243.639 72.5297 243.748 72.4747C243.877 72.438 244.005 72.4197 244.188 72.3831C244.353 72.3831 244.555 72.3831 244.793 72.3831Z" fill="#4D4D4D"/>
<path d="M35.2951 47.6992C30.9336 48.8171 20.3048 52.0241 8.72302 59.171L35.2951 82.7744V47.6992Z" fill="#F69320"/>
<path d="M224.47 26.0933H220.255H178.839H177.355H175.229V23.6193C176.164 21.3653 182.999 6.11842 195.094 4.08428C195.992 3.93767 196.908 3.86437 197.806 3.86437C205.411 3.86437 213.713 9.08716 222.454 19.3678C222.747 19.716 223.169 19.9176 223.627 19.9176C223.975 19.9176 224.342 19.7893 224.617 19.5327C225.258 18.983 225.35 17.9934 224.8 17.352C215.454 6.33832 206.383 0.749023 197.825 0.749023C196.743 0.749023 195.644 0.840651 194.581 1.02391C191.191 1.592 187.929 3.05805 184.868 5.38539C182.431 7.2546 180.104 9.65525 177.978 12.5507C174.331 17.4986 172.444 22.2266 172.242 22.7397C172.169 22.923 172.15 23.1062 172.15 23.2895V26.075H67.1816H40.6095H23.4567H12.8462H1.53935C0.696372 26.0933 0 26.7897 0 27.651C0 28.4939 0.696372 29.1903 1.53935 29.1903H12.8462H23.4567H34.4338L5.02121 57.7049C4.8746 57.8332 4.76465 58.0164 4.67302 58.1997L4.6547 58.2547L4.61804 58.328C4.59972 58.383 4.58139 58.4563 4.56307 58.5479C4.56307 58.5662 4.56307 58.5845 4.54474 58.6029V58.6395C4.54474 58.6945 4.52642 58.7495 4.52642 58.8228V58.8411C4.52642 58.8961 4.52642 58.951 4.52642 58.9694C4.52642 59.006 4.52642 59.0427 4.54474 59.061V59.0977C4.56307 59.171 4.58139 59.2443 4.59972 59.2809H4.61804C4.63637 59.3359 4.6547 59.3542 4.6547 59.4092C4.67302 59.4642 4.69135 59.5008 4.70967 59.5558C4.728 59.5741 4.728 59.6108 4.76465 59.6474C4.78297 59.6657 4.8013 59.7024 4.81963 59.7207C4.83795 59.739 4.83795 59.7574 4.85628 59.794V59.7757L4.89293 59.8307L4.94791 59.8857C4.94791 59.8857 4.96623 59.904 4.98456 59.9223C5.00288 59.9406 5.02121 59.9773 5.05786 60.0139L35.2951 86.9892V91.2407C35.2951 92.102 35.9914 92.7801 36.8344 92.7801C37.6957 92.7801 38.3921 92.0837 38.3921 91.2407V29.1903H40.6095H65.1841H74.4385L45.0076 57.7049C44.8793 57.8332 44.7511 58.0164 44.6594 58.1997L44.6411 58.2547L44.6228 58.328C44.6044 58.383 44.5678 58.4563 44.5678 58.5479C44.5678 58.5662 44.5678 58.5845 44.5678 58.6029V58.6395C44.5678 58.6945 44.5495 58.7495 44.5495 58.8228V58.8411C44.5495 58.8961 44.5678 58.951 44.5678 58.9694C44.5678 59.006 44.5861 59.0427 44.5861 59.061V59.0977C44.5861 59.171 44.6228 59.2443 44.6411 59.2809C44.6594 59.3359 44.6594 59.3542 44.6777 59.4092C44.7144 59.4642 44.7327 59.5008 44.7511 59.5558C44.7694 59.5741 44.7877 59.6108 44.806 59.6474C44.8244 59.6657 44.8427 59.7024 44.861 59.7207C44.8793 59.739 44.8793 59.7574 44.8977 59.794V59.7574L44.9343 59.8123L44.9893 59.8673C44.9893 59.8673 45.0076 59.8856 45.0076 59.904C45.0443 59.9223 45.0626 59.959 45.0992 59.9956L75.3181 86.9708V91.2224C75.3181 92.0837 76.0145 92.7617 76.8575 92.7617C77.7004 92.7617 78.3968 92.0654 78.3968 91.2224V46.9844C79.4414 46.8745 81.0723 46.7462 83.0149 46.7462C87.6879 46.7462 93.9735 47.4609 97.4921 50.8511C99.0864 52.3722 99.966 54.388 100.149 56.8436C98.8848 55.7807 97.3821 54.8278 95.6778 54.0215C94.7066 53.5633 93.6803 53.3251 92.6358 53.3251C91.1148 53.3251 89.5937 53.8382 88.256 54.7911C85.6171 56.6604 84.0228 60.0139 84.3709 62.946C84.6825 65.4016 86.2218 67.2892 88.7324 68.3154C89.8503 68.7736 91.0048 68.9935 92.1227 68.9935C96.5575 68.9935 99.7461 65.5116 101.322 63.2942C101.487 63.679 101.542 63.9356 101.542 64.0089C101.56 64.8519 102.257 65.5299 103.1 65.5299C103.961 65.5299 104.657 64.8336 104.657 63.9906C104.657 63.3858 104.327 61.9198 103.136 60.1239C103.173 60.0323 103.191 59.9223 103.191 59.8307C103.723 55.1577 102.55 51.3826 99.6911 48.6337C95.4213 44.5288 88.3109 43.6492 83.1065 43.6492C81.2556 43.6492 79.6246 43.7591 78.4518 43.8691V29.2086H105.244C106.472 29.8317 111.291 32.4706 115.928 37.5101C121.975 44.0707 125.145 51.7674 125.347 60.3804C124.009 60.1972 123.001 60.1605 122.47 60.1605C122.323 60.1605 122.158 60.1605 122.085 60.1605C117.87 60.2338 114.938 61.535 113.289 64.0089C110.796 67.7473 111.621 73.5565 115.195 75.5174C117.943 77.0201 121.425 76.287 122.47 75.7189C126.721 73.3549 127.967 66.941 128.316 64.1372C134.528 66.043 141.858 71.4857 143.068 86.3295V91.2041C143.068 92.0654 143.764 92.7434 144.607 92.7434C145.468 92.7434 146.165 92.047 146.165 91.2041V29.1903H157.105V91.2041C157.105 92.0654 157.783 92.7434 158.644 92.7434C159.506 92.7434 160.184 92.047 160.184 91.2041V29.1903H172.187V91.2041C172.187 92.0654 172.883 92.7434 173.726 92.7434C174.588 92.7434 175.284 92.047 175.284 91.2041V29.1903H177.41H178.894H211.844L182.358 57.7049C182.211 57.8332 182.101 58.0164 182.01 58.1997L181.991 58.2547L181.973 58.328C181.955 58.383 181.936 58.4563 181.918 58.5479C181.918 58.5662 181.918 58.5845 181.918 58.6029L181.9 58.6395C181.9 58.6945 181.881 58.7495 181.881 58.8228V58.8411C181.881 58.8961 181.881 58.951 181.9 58.9694C181.9 59.006 181.918 59.0427 181.918 59.061V59.0977C181.936 59.171 181.955 59.2443 181.973 59.2809C181.973 59.3359 181.991 59.3542 182.01 59.4092C182.046 59.4642 182.065 59.5008 182.083 59.5558C182.101 59.5741 182.101 59.6108 182.138 59.6474C182.156 59.6657 182.175 59.7024 182.193 59.7207C182.193 59.739 182.211 59.7574 182.23 59.794V59.7574L182.266 59.8123L182.321 59.8673C182.321 59.8673 182.339 59.8856 182.358 59.904C182.376 59.9223 182.413 59.959 182.431 59.9956L212.65 86.9708V91.2224C212.65 92.0837 213.346 92.7617 214.208 92.7617C215.051 92.7617 215.747 92.0654 215.747 91.2224V29.1903H220.273H224.488H228.758C228.886 28.7688 229.033 28.384 229.216 28.0175C229.619 27.2478 230.151 26.6431 230.756 26.0933H224.47ZM35.2951 82.7743L8.72297 59.1526C20.2864 52.0057 30.9336 48.7987 35.2951 47.6808V82.7743ZM35.2951 44.3639C32.4363 45.0419 24.9045 47.0944 15.7966 51.5475L35.2951 32.6538V44.3639ZM75.2998 82.7743L48.7277 59.171C60.2911 52.024 70.92 48.817 75.2998 47.6991V82.7743ZM75.2998 44.3639C72.441 45.0419 64.9092 47.0944 55.8014 51.5475L75.2998 32.6538V44.3639ZM89.9602 65.6399C88.4392 65.0351 87.5596 63.9723 87.3947 62.5612C87.1748 60.7103 88.2743 58.4563 90.0152 57.2101C90.5833 56.807 91.5362 56.2755 92.7091 56.2755C93.2772 56.2755 93.8819 56.4038 94.5233 56.697C96.9606 57.8698 98.5733 59.2259 99.6361 60.4721C98.335 62.6895 94.8532 67.6007 89.9602 65.6399ZM121.04 73.0068C119.574 73.8131 117.43 73.7948 115.799 71.9622C115.103 71.1559 114.077 67.9489 115.653 65.5483C116.697 63.9723 118.768 63.1293 121.865 63.0743C122.067 63.056 123.386 63.001 125.292 63.3309C125.237 63.8806 124.651 71.0093 121.04 73.0068ZM143.013 73.5565C139.329 65.6765 133.245 62.3779 128.389 61.0218C128.334 52.9952 125.915 45.6284 121.205 39.1228C117.907 34.6147 114.095 31.3527 111.053 29.1903H143.013V73.5565ZM212.65 82.7743L186.078 59.171C197.641 52.024 208.288 48.817 212.65 47.6991V82.7743ZM212.65 44.3639C209.791 45.0419 202.259 47.0944 193.17 51.5475L212.65 32.6538V44.3639Z" fill="black"/>
<path d="M212.632 47.6804C208.27 48.7983 197.641 52.0236 186.06 59.1706L212.632 82.7739V47.6804Z" fill="#FCEE1F"/>
<path d="M89.9603 65.6398C88.4393 65.035 87.5597 63.9721 87.3764 62.5611C87.1565 60.7102 88.2744 58.4561 89.997 57.21C90.5651 56.8068 91.518 56.2754 92.6908 56.2754C93.2589 56.2754 93.8637 56.4037 94.5051 56.6969C96.9424 57.8697 98.555 59.2258 99.6179 60.4719C98.3351 62.6893 94.8532 67.6006 89.9603 65.6398Z" fill="white"/>
<path d="M212.632 32.6724L193.152 51.566C202.259 47.1129 209.791 45.0605 212.65 44.3641V32.6724H212.632Z" fill="white"/>
<path d="M234.96 19.7711C232.541 19.7711 230.561 17.792 230.561 15.373C230.561 12.954 232.541 10.9749 234.96 10.9749C237.379 10.9749 239.358 12.954 239.358 15.373C239.376 17.8103 237.379 19.7711 234.96 19.7711ZM234.96 11.2864C232.705 11.2864 230.873 13.1189 230.873 15.373C230.873 17.627 232.705 19.4596 234.96 19.4596C237.214 19.4596 239.046 17.6087 239.046 15.373C239.064 13.1189 237.214 11.2864 234.96 11.2864Z" fill="black"/>
<path d="M233.31 12.6607C233.677 12.5874 234.208 12.5508 234.703 12.5508C235.473 12.5508 235.967 12.6974 236.334 13.0089C236.609 13.2655 236.774 13.632 236.774 14.0718C236.774 14.8048 236.297 15.2996 235.711 15.5012V15.5195C236.132 15.6661 236.407 16.0693 236.535 16.6557C236.719 17.4437 236.847 17.9752 236.975 18.1951H236.224C236.132 18.0301 236.004 17.5537 235.857 16.8573C235.693 16.0876 235.399 15.7944 234.74 15.7578H234.043V18.1951H233.31V12.6607ZM234.025 15.2263H234.758C235.528 15.2263 236.022 14.8048 236.022 14.1634C236.022 13.4304 235.509 13.1189 234.74 13.1189C234.391 13.1189 234.135 13.1555 234.025 13.1922V15.2263Z" fill="black"/>
</svg>
